<?xml version="1.0" encoding="UTF-8"?>
<svg xmlns="http://www.w3.org/2000/svg" viewBox="0 0 64 64" width="64" height="64" aria-hidden="true" role="img">
  <title>Jersey</title>
  <g fill="none" fill-rule="evenodd">
    <!-- main body -->
    <path d="M8 14c0 0 6-4 12-4s6 2 12 2 6-2 12-2 12 4 12 4v28c0 4-4 8-8 8H16c-4 0-8-4-8-8V14z" fill="#2C7BE5" stroke="#08306B" stroke-width="1.2"/>
    <!-- pronounced shoulders -->
    <path d="M8 14c4 0 6-4 12-4" stroke="#08306B" stroke-width="1.4" stroke-linecap="round" fill="none"/>
    <path d="M56 14c-4 0-6-4-12-4" stroke="#08306B" stroke-width="1.4" stroke-linecap="round" fill="none"/>
    <!-- collar -- more visible V shape -->
    <path d="M26 12 L32 18 L38 12" stroke="#04173A" stroke-width="1.6" stroke-linecap="round" stroke-linejoin="round" fill="none" />
    <!-- subtle highlights on shoulders -->
    <path d="M14 18c4 0 10-2 18-2" stroke="#ffffff" stroke-opacity="0.08" stroke-width="2" fill="none" stroke-linecap="round" />
    <path d="M50 18c-4 0-10-2-18-2" stroke="#ffffff" stroke-opacity="0.06" stroke-width="2" fill="none" stroke-linecap="round" />
    <!-- chest panel -->
    <rect x="20" y="22" width="24" height="18" rx="3" fill="#FFF" opacity="0.08"/>
  </g>
</svg>
